<svg width="26" height="26" viewBox="0 0 26 26" fill="none" xmlns="http://www.w3.org/2000/svg">
<path d="M5.70213 1.05255C6.52693 0.54874 7.60398 0.808951 8.1078 1.63375L13.5812 10.5943L22.5418 5.12093C23.3666 4.61712 24.4436 4.87733 24.9474 5.70213C25.4512 6.52693 25.191 7.60398 24.3662 8.10779L15.4057 13.5812L20.8791 22.5418C21.3829 23.3666 21.1227 24.4436 20.2979 24.9474C19.4731 25.4512 18.396 25.191 17.8922 24.3662L12.4188 15.4057L3.45823 20.8791C2.63343 21.3829 1.55638 21.1227 1.05257 20.2979C0.548754 19.4731 0.808965 18.396 1.63376 17.8922L10.5943 12.4188L5.12094 3.45821C4.61712 2.63342 4.87734 1.55636 5.70213 1.05255Z" fill="#E7E7E7"/>
</svg>
